v -0.14999999999999999 -0.089999999999999997 -0.040000000000000001
v -0.14999999999999999 0.089999999999999997 -0.040000000000000001
v -0.14999999999999999 0 0.080000000000000002
v 0.14999999999999999 -0.089999999999999997 -0.040000000000000001
v 0.14999999999999999 0.089999999999999997 -0.040000000000000001
v 0.14999999999999999 0 0.080000000000000002
v -0.14999999999999999 0.044999999999999998 0.02
v -0.14999999999999999 0 -0.040000000000000001
v -0.14999999999999999 -0.044999999999999998 0.02
v 0.14999999999999999 0.044999999999999998 0.02
v 0.14999999999999999 -0.044999999999999998 0.02
v 0.14999999999999999 0 -0.040000000000000001
v 0 0 -0.040000000000000001
v 0 -0.089999999999999997 -0.040000000000000001
v 0 0.089999999999999997 -0.040000000000000001
v 0 0.044999999999999998 0.02
v 0 0 0.080000000000000002
v 0 -0.044999999999999998 0.02
v -0.14999999999999999 0.022499999999999999 0.050000000000000003
v -0.14999999999999999 0 0.02
v -0.14999999999999999 -0.022499999999999999 0.050000000000000003
v -0.14999999999999999 0.067500000000000004 -0.01
v -0.14999999999999999 0.044999999999999998 -0.040000000000000001
v -0.14999999999999999 0.022499999999999999 -0.01
v -0.14999999999999999 -0.022499999999999999 -0.01
v -0.14999999999999999 -0.044999999999999998 -0.040000000000000001
v -0.14999999999999999 -0.067500000000000004 -0.01
v 0.14999999999999999 0.067500000000000004 -0.01
v 0.14999999999999999 0.022499999999999999 -0.01
v 0.14999999999999999 0.044999999999999998 -0.040000000000000001
v 0.14999999999999999 0.022499999999999999 0.050000000000000003
v 0.14999999999999999 -0.022499999999999999 0.050000000000000003
v 0.14999999999999999 0 0.02
v 0.14999999999999999 -0.022499999999999999 -0.01
v 0.14999999999999999 -0.067500000000000004 -0.01
v 0.14999999999999999 -0.044999999999999998 -0.040000000000000001
v -0.074999999999999997 0.044999999999999998 -0.040000000000000001
v -0.074999999999999997 0 -0.040000000000000001
v 0.074999999999999997 -0.044999999999999998 -0.040000000000000001
v 0.074999999999999997 -0.089999999999999997 -0.040000000000000001
v 0 -0.044999999999999998 -0.040000000000000001
v -0.074999999999999997 -0.044999999999999998 -0.040000000000000001
v -0.074999999999999997 -0.089999999999999997 -0.040000000000000001
v 0.074999999999999997 0.044999999999999998 -0.040000000000000001
v 0.074999999999999997 0.089999999999999997 -0.040000000000000001
v 0.074999999999999997 0 -0.040000000000000001
v 0 0.044999999999999998 -0.040000000000000001
v -0.074999999999999997 0.089999999999999997 -0.040000000000000001
v -0.074999999999999997 0.022499999999999999 0.050000000000000003
v -0.074999999999999997 0.044999999999999998 0.02
v 0.074999999999999997 0.067500000000000004 -0.01
v 0 0.067500000000000004 -0.01
v -0.074999999999999997 0.067500000000000004 -0.01
v 0.074999999999999997 0.022499999999999999 0.050000000000000003
v 0.074999999999999997 0 0.080000000000000002
v 0.074999999999999997 0.044999999999999998 0.02
v 0 0.022499999999999999 0.050000000000000003
v -0.074999999999999997 0 0.080000000000000002
v -0.074999999999999997 -0.067500000000000004 -0.01
v -0.074999999999999997 -0.044999999999999998 0.02
v 0.074999999999999997 -0.022499999999999999 0.050000000000000003
v 0 -0.022499999999999999 0.050000000000000003
v -0.074999999999999997 -0.022499999999999999 0.050000000000000003
v 0.074999999999999997 -0.067500000000000004 -0.01
v 0.074999999999999997 -0.044999999999999998 0.02
v 0 -0.067500000000000004 -0.01
v -0.14999999999999999 0.01125 0.065000000000000002
v -0.14999999999999999 0 0.050000000000000003
v -0.14999999999999999 -0.01125 0.065000000000000002
v -0.14999999999999999 0.033750000000000002 0.035000000000000003
v -0.14999999999999999 0.022499999999999999 0.02
v -0.14999999999999999 0.01125 0.035000000000000003
v -0.14999999999999999 -0.01125 0.035000000000000003
v -0.14999999999999999 -0.022499999999999999 0.02
v -0.14999999999999999 -0.033750000000000002 0.035000000000000003
v -0.14999999999999999 0.056250000000000001 0.0050000000000000001
v -0.14999999999999999 0.044999999999999998 -0.01
v -0.14999999999999999 0.033750000000000002 0.0050000000000000001
v -0.14999999999999999 0.078750000000000001 -0.025000000000000001
v -0.14999999999999999 0.067500000000000004 -0.040000000000000001
v -0.14999999999999999 0.056250000000000001 -0.025000000000000001
v -0.14999999999999999 0.033750000000000002 -0.025000000000000001
v -0.14999999999999999 0.022499999999999999 -0.040000000000000001
v -0.14999999999999999 0.01125 -0.025000000000000001
v -0.14999999999999999 -0.033750000000000002 0.0050000000000000001
v -0.14999999999999999 -0.044999999999999998 -0.01
v -0.14999999999999999 -0.056250000000000001 0.0050000000000000001
v -0.14999999999999999 -0.01125 -0.025000000000000001
v -0.14999999999999999 -0.022499999999999999 -0.040000000000000001
v -0.14999999999999999 -0.033750000000000002 -0.025000000000000001
v -0.14999999999999999 -0.056250000000000001 -0.025000000000000001
v -0.14999999999999999 -0.067500000000000004 -0.040000000000000001
v -0.14999999999999999 -0.078750000000000001 -0.025000000000000001
v -0.14999999999999999 0.01125 0.0050000000000000001
v -0.14999999999999999 0 -0.01
v -0.14999999999999999 -0.01125 0.0050000000000000001
v 0.14999999999999999 0.078750000000000001 -0.025000000000000001
v 0.14999999999999999 0.056250000000000001 -0.025000000000000001
v 0.14999999999999999 0.067500000000000004 -0.040000000000000001
v 0.14999999999999999 0.056250000000000001 0.0050000000000000001
v 0.14999999999999999 0.033750000000000002 0.0050000000000000001
v 0.14999999999999999 0.044999999999999998 -0.01
v 0.14999999999999999 0.033750000000000002 -0.025000000000000001
v 0.14999999999999999 0.01125 -0.025000000000000001
v 0.14999999999999999 0.022499999999999999 -0.040000000000000001
v 0.14999999999999999 0.033750000000000002 0.035000000000000003
v 0.14999999999999999 0.01125 0.035000000000000003
v 0.14999999999999999 0.022499999999999999 0.02
v 0.14999999999999999 0.01125 0.065000000000000002
v 0.14999999999999999 -0.01125 0.065000000000000002
v 0.14999999999999999 0 0.050000000000000003
v 0.14999999999999999 -0.01125 0.035000000000000003
v 0.14999999999999999 -0.033750000000000002 0.035000000000000003
v 0.14999999999999999 -0.022499999999999999 0.02
v 0.14999999999999999 -0.01125 -0.025000000000000001
v 0.14999999999999999 -0.033750000000000002 -0.025000000000000001
v 0.14999999999999999 -0.022499999999999999 -0.040000000000000001
v 0.14999999999999999 -0.033750000000000002 0.0050000000000000001
v 0.14999999999999999 -0.056250000000000001 0.0050000000000000001
v 0.14999999999999999 -0.044999999999999998 -0.01
v 0.14999999999999999 -0.056250000000000001 -0.025000000000000001
v 0.14999999999999999 -0.078750000000000001 -0.025000000000000001
v 0.14999999999999999 -0.067500000000000004 -0.040000000000000001
v 0.14999999999999999 0.01125 0.0050000000000000001
v 0.14999999999999999 -0.01125 0.0050000000000000001
v 0.14999999999999999 0 -0.01
v -0.11249999999999999 0.067500000000000004 -0.040000000000000001
v -0.11249999999999999 0.044999999999999998 -0.040000000000000001
v -0.037499999999999999 0.022499999999999999 -0.040000000000000001
v -0.037499999999999999 0 -0.040000000000000001
v -0.074999999999999997 0.022499999999999999 -0.040000000000000001
v -0.11249999999999999 0.022499999999999999 -0.040000000000000001
v -0.11249999999999999 0 -0.040000000000000001
v 0.037499999999999999 -0.022499999999999999 -0.040000000000000001
v 0.037499999999999999 -0.044999999999999998 -0.040000000000000001
v 0 -0.022499999999999999 -0.040000000000000001
v 0.11249999999999999 -0.067500000000000004 -0.040000000000000001
v 0.11249999999999999 -0.089999999999999997 -0.040000000000000001
v 0.074999999999999997 -0.067500000000000004 -0.040000000000000001
v 0.037499999999999999 -0.067500000000000004 -0.040000000000000001
v 0.037499999999999999 -0.089999999999999997 -0.040000000000000001
v 0 -0.067500000000000004 -0.040000000000000001
v -0.11249999999999999 -0.022499999999999999 -0.040000000000000001
v -0.11249999999999999 -0.044999999999999998 -0.040000000000000001
v -0.037499999999999999 -0.067500000000000004 -0.040000000000000001
v -0.037499999999999999 -0.089999999999999997 -0.040000000000000001
v -0.074999999999999997 -0.067500000000000004 -0.040000000000000001
v -0.11249999999999999 -0.067500000000000004 -0.040000000000000001
v -0.11249999999999999 -0.089999999999999997 -0.040000000000000001
v -0.037499999999999999 -0.022499999999999999 -0.040000000000000001
v -0.037499999999999999 -0.044999999999999998 -0.040000000000000001
v -0.074999999999999997 -0.022499999999999999 -0.040000000000000001
v 0.11249999999999999 0.067500000000000004 -0.040000000000000001
v 0.11249999999999999 0.089999999999999997 -0.040000000000000001
v 0.11249999999999999 0.022499999999999999 -0.040000000000000001
v 0.11249999999999999 0.044999999999999998 -0.040000000000000001
v 0.074999999999999997 0.067500000000000004 -0.040000000000000001
v 0.037499999999999999 0.067500000000000004 -0.040000000000000001
v 0.037499999999999999 0.089999999999999997 -0.040000000000000001
v 0.11249999999999999 -0.022499999999999999 -0.040000000000000001
v 0.11249999999999999 0 -0.040000000000000001
v 0.11249999999999999 -0.044999999999999998 -0.040000000000000001
v 0.074999999999999997 -0.022499999999999999 -0.040000000000000001
v 0.037499999999999999 0 -0.040000000000000001
v 0 0.067500000000000004 -0.040000000000000001
v -0.037499999999999999 0.067500000000000004 -0.040000000000000001
v -0.037499999999999999 0.089999999999999997 -0.040000000000000001
v 0 0.022499999999999999 -0.040000000000000001
v -0.037499999999999999 0.044999999999999998 -0.040000000000000001
v -0.074999999999999997 0.067500000000000004 -0.040000000000000001
v -0.11249999999999999 0.089999999999999997 -0.040000000000000001
v 0.074999999999999997 0.022499999999999999 -0.040000000000000001
v 0.037499999999999999 0.022499999999999999 -0.040000000000000001
v 0.037499999999999999 0.044999999999999998 -0.040000000000000001
v -0.11249999999999999 0.01125 0.065000000000000002
v -0.11249999999999999 0.022499999999999999 0.050000000000000003
v -0.037499999999999999 0.033750000000000002 0.035000000000000003
v -0.037499999999999999 0.044999999999999998 0.02
v -0.074999999999999997 0.033750000000000002 0.035000000000000003
v -0.11249999999999999 0.033750000000000002 0.035000000000000003
v -0.11249999999999999 0.044999999999999998 0.02
v 0.037499999999999999 0.056250000000000001 0.0050000000000000001
v 0.037499999999999999 0.067500000000000004 -0.01
v 0 0.056250000000000001 0.0050000000000000001
v 0.11249999999999999 0.078750000000000001 -0.025000000000000001
v 0.074999999999999997 0.078750000000000001 -0.025000000000000001
v 0.037499999999999999 0.078750000000000001 -0.025000000000000001
v 0 0.078750000000000001 -0.025000000000000001
v -0.11249999999999999 0.056250000000000001 0.0050000000000000001
v -0.11249999999999999 0.067500000000000004 -0.01
v -0.037499999999999999 0.078750000000000001 -0.025000000000000001
v -0.074999999999999997 0.078750000000000001 -0.025000000000000001
v -0.11249999999999999 0.078750000000000001 -0.025000000000000001
v -0.037499999999999999 0.056250000000000001 0.0050000000000000001
v -0.037499999999999999 0.067500000000000004 -0.01
v -0.074999999999999997 0.056250000000000001 0.0050000000000000001
v 0.11249999999999999 0.01125 0.065000000000000002
v 0.11249999999999999 0 0.080000000000000002
v 0.11249999999999999 0.033750000000000002 0.035000000000000003
v 0.11249999999999999 0.022499999999999999 0.050000000000000003
v 0.074999999999999997 0.01125 0.065000000000000002
v 0.037499999999999999 0.01125 0.065000000000000002
v 0.037499999999999999 0 0.080000000000000002
v 0.11249999999999999 0.056250000000000001 0.0050000000000000001
v 0.11249999999999999 0.044999999999999998 0.02
v 0.11249999999999999 0.067500000000000004 -0.01
v 0.074999999999999997 0.056250000000000001 0.0050000000000000001
v 0.037499999999999999 0.044999999999999998 0.02
v 0 0.01125 0.065000000000000002
v -0.037499999999999999 0.01125 0.065000000000000002
v -0.037499999999999999 0 0.080000000000000002
v 0 0.033750000000000002 0.035000000000000003
v -0.037499999999999999 0.022499999999999999 0.050000000000000003
v -0.074999999999999997 0.01125 0.065000000000000002
v -0.11249999999999999 0 0.080000000000000002
v 0.074999999999999997 0.033750000000000002 0.035000000000000003
v 0.037499999999999999 0.033750000000000002 0.035000000000000003
v 0.037499999999999999 0.022499999999999999 0.050000000000000003
v -0.11249999999999999 -0.078750000000000001 -0.025000000000000001
v -0.11249999999999999 -0.067500000000000004 -0.01
v -0.037499999999999999 -0.056250000000000001 0.0050000000000000001
v -0.037499999999999999 -0.044999999999999998 0.02
v -0.074999999999999997 -0.056250000000000001 0.0050000000000000001
v -0.11249999999999999 -0.056250000000000001 0.0050000000000000001
v -0.11249999999999999 -0.044999999999999998 0.02
v 0.037499999999999999 -0.033750000000000002 0.035000000000000003
v 0.037499999999999999 -0.022499999999999999 0.050000000000000003
v 0 -0.033750000000000002 0.035000000000000003
v 0.11249999999999999 -0.01125 0.065000000000000002
v 0.074999999999999997 -0.01125 0.065000000000000002
v 0.037499999999999999 -0.01125 0.065000000000000002
v 0 -0.01125 0.065000000000000002
v -0.11249999999999999 -0.033750000000000002 0.035000000000000003
v -0.11249999999999999 -0.022499999999999999 0.050000000000000003
v -0.037499999999999999 -0.01125 0.065000000000000002
v -0.074999999999999997 -0.01125 0.065000000000000002
v -0.11249999999999999 -0.01125 0.065000000000000002
v -0.037499999999999999 -0.033750000000000002 0.035000000000000003
v -0.037499999999999999 -0.022499999999999999 0.050000000000000003
v -0.074999999999999997 -0.033750000000000002 0.035000000000000003
v 0.11249999999999999 -0.078750000000000001 -0.025000000000000001
v 0.11249999999999999 -0.056250000000000001 0.0050000000000000001
v 0.11249999999999999 -0.067500000000000004 -0.01
v 0.074999999999999997 -0.078750000000000001 -0.025000000000000001
v 0.037499999999999999 -0.078750000000000001 -0.025000000000000001
v 0.11249999999999999 -0.033750000000000002 0.035000000000000003
v 0.11249999999999999 -0.044999999999999998 0.02
v 0.11249999999999999 -0.022499999999999999 0.050000000000000003
v 0.074999999999999997 -0.033750000000000002 0.035000000000000003
v 0.037499999999999999 -0.044999999999999998 0.02
v 0 -0.078750000000000001 -0.025000000000000001
v -0.037499999999999999 -0.078750000000000001 -0.025000000000000001
v 0 -0.056250000000000001 0.0050000000000000001
v -0.037499999999999999 -0.067500000000000004 -0.01
v -0.074999999999999997 -0.078750000000000001 -0.025000000000000001
v 0.074999999999999997 -0.056250000000000001 0.0050000000000000001
v 0.037499999999999999 -0.056250000000000001 0.0050000000000000001
v 0.037499999999999999 -0.067500000000000004 -0.01
f 3 67 69
f 67 19 68
f 69 68 21
f 67 68 69
f 19 70 72
f 70 7 71
f 72 71 20
f 70 71 72
f 21 73 75
f 73 20 74
f 75 74 9
f 73 74 75
f 19 72 68
f 72 20 73
f 68 73 21
f 72 73 68
f 7 76 78
f 76 22 77
f 78 77 24
f 76 77 78
f 22 79 81
f 79 2 80
f 81 80 23
f 79 80 81
f 24 82 84
f 82 23 83
f 84 83 8
f 82 83 84
f 22 81 77
f 81 23 82
f 77 82 24
f 81 82 77
f 9 85 87
f 85 25 86
f 87 86 27
f 85 86 87
f 25 88 90
f 88 8 89
f 90 89 26
f 88 89 90
f 27 91 93
f 91 26 92
f 93 92 1
f 91 92 93
f 25 90 86
f 90 26 91
f 86 91 27
f 90 91 86
f 7 78 71
f 78 24 94
f 71 94 20
f 78 94 71
f 24 84 95
f 84 8 88
f 95 88 25
f 84 88 95
f 20 96 74
f 96 25 85
f 74 85 9
f 96 85 74
f 24 95 94
f 95 25 96
f 94 96 20
f 95 96 94
f 5 97 99
f 97 28 98
f 99 98 30
f 97 98 99
f 28 100 102
f 100 10 101
f 102 101 29
f 100 101 102
f 30 103 105
f 103 29 104
f 105 104 12
f 103 104 105
f 28 102 98
f 102 29 103
f 98 103 30
f 102 103 98
f 10 106 108
f 106 31 107
f 108 107 33
f 106 107 108
f 31 109 111
f 109 6 110
f 111 110 32
f 109 110 111
f 33 112 114
f 112 32 113
f 114 113 11
f 112 113 114
f 31 111 107
f 111 32 112
f 107 112 33
f 111 112 107
f 12 115 117
f 115 34 116
f 117 116 36
f 115 116 117
f 34 118 120
f 118 11 119
f 120 119 35
f 118 119 120
f 36 121 123
f 121 35 122
f 123 122 4
f 121 122 123
f 34 120 116
f 120 35 121
f 116 121 36
f 120 121 116
f 10 108 101
f 108 33 124
f 101 124 29
f 108 124 101
f 33 114 125
f 114 11 118
f 125 118 34
f 114 118 125
f 29 126 104
f 126 34 115
f 104 115 12
f 126 115 104
f 33 125 124
f 125 34 126
f 124 126 29
f 125 126 124
f 2 127 80
f 127 37 128
f 80 128 23
f 127 128 80
f 37 129 131
f 129 13 130
f 131 130 38
f 129 130 131
f 23 132 83
f 132 38 133
f 83 133 8
f 132 133 83
f 37 131 128
f 131 38 132
f 128 132 23
f 131 132 128
f 13 134 136
f 134 39 135
f 136 135 41
f 134 135 136
f 39 137 139
f 137 4 138
f 139 138 40
f 137 138 139
f 41 140 142
f 140 40 141
f 142 141 14
f 140 141 142
f 39 139 135
f 139 40 140
f 135 140 41
f 139 140 135
f 8 143 89
f 143 42 144
f 89 144 26
f 143 144 89
f 42 145 147
f 145 14 146
f 147 146 43
f 145 146 147
f 26 148 92
f 148 43 149
f 92 149 1
f 148 149 92
f 42 147 144
f 147 43 148
f 144 148 26
f 147 148 144
f 13 136 130
f 136 41 150
f 130 150 38
f 136 150 130
f 41 142 151
f 142 14 145
f 151 145 42
f 142 145 151
f 38 152 133
f 152 42 143
f 133 143 8
f 152 143 133
f 41 151 150
f 151 42 152
f 150 152 38
f 151 152 150
f 5 99 154
f 99 30 153
f 154 153 45
f 99 153 154
f 30 105 156
f 105 12 155
f 156 155 44
f 105 155 156
f 45 157 159
f 157 44 158
f 159 158 15
f 157 158 159
f 30 156 153
f 156 44 157
f 153 157 45
f 156 157 153
f 12 117 161
f 117 36 160
f 161 160 46
f 117 160 161
f 36 123 162
f 123 4 137
f 162 137 39
f 123 137 162
f 46 163 164
f 163 39 134
f 164 134 13
f 163 134 164
f 36 162 160
f 162 39 163
f 160 163 46
f 162 163 160
f 15 165 167
f 165 47 166
f 167 166 48
f 165 166 167
f 47 168 169
f 168 13 129
f 169 129 37
f 168 129 169
f 48 170 171
f 170 37 127
f 171 127 2
f 170 127 171
f 47 169 166
f 169 37 170
f 166 170 48
f 169 170 166
f 12 161 155
f 161 46 172
f 155 172 44
f 161 172 155
f 46 164 173
f 164 13 168
f 173 168 47
f 164 168 173
f 44 174 158
f 174 47 165
f 158 165 15
f 174 165 158
f 46 173 172
f 173 47 174
f 172 174 44
f 173 174 172
f 3 175 67
f 175 49 176
f 67 176 19
f 175 176 67
f 49 177 179
f 177 16 178
f 179 178 50
f 177 178 179
f 19 180 70
f 180 50 181
f 70 181 7
f 180 181 70
f 49 179 176
f 179 50 180
f 176 180 19
f 179 180 176
f 16 182 184
f 182 51 183
f 184 183 52
f 182 183 184
f 51 185 186
f 185 5 154
f 186 154 45
f 185 154 186
f 52 187 188
f 187 45 159
f 188 159 15
f 187 159 188
f 51 186 183
f 186 45 187
f 183 187 52
f 186 187 183
f 7 189 76
f 189 53 190
f 76 190 22
f 189 190 76
f 53 191 192
f 191 15 167
f 192 167 48
f 191 167 192
f 22 193 79
f 193 48 171
f 79 171 2
f 193 171 79
f 53 192 190
f 192 48 193
f 190 193 22
f 192 193 190
f 16 184 178
f 184 52 194
f 178 194 50
f 184 194 178
f 52 188 195
f 188 15 191
f 195 191 53
f 188 191 195
f 50 196 181
f 196 53 189
f 181 189 7
f 196 189 181
f 52 195 194
f 195 53 196
f 194 196 50
f 195 196 194
f 6 109 198
f 109 31 197
f 198 197 55
f 109 197 198
f 31 106 200
f 106 10 199
f 200 199 54
f 106 199 200
f 55 201 203
f 201 54 202
f 203 202 17
f 201 202 203
f 31 200 197
f 200 54 201
f 197 201 55
f 200 201 197
f 10 100 205
f 100 28 204
f 205 204 56
f 100 204 205
f 28 97 206
f 97 5 185
f 206 185 51
f 97 185 206
f 56 207 208
f 207 51 182
f 208 182 16
f 207 182 208
f 28 206 204
f 206 51 207
f 204 207 56
f 206 207 204
f 17 209 211
f 209 57 210
f 211 210 58
f 209 210 211
f 57 212 213
f 212 16 177
f 213 177 49
f 212 177 213
f 58 214 215
f 214 49 175
f 215 175 3
f 214 175 215
f 57 213 210
f 213 49 214
f 210 214 58
f 213 214 210
f 10 205 199
f 205 56 216
f 199 216 54
f 205 216 199
f 56 208 217
f 208 16 212
f 217 212 57
f 208 212 217
f 54 218 202
f 218 57 209
f 202 209 17
f 218 209 202
f 56 217 216
f 217 57 218
f 216 218 54
f 217 218 216
f 1 219 93
f 219 59 220
f 93 220 27
f 219 220 93
f 59 221 223
f 221 18 222
f 223 222 60
f 221 222 223
f 27 224 87
f 224 60 225
f 87 225 9
f 224 225 87
f 59 223 220
f 223 60 224
f 220 224 27
f 223 224 220
f 18 226 228
f 226 61 227
f 228 227 62
f 226 227 228
f 61 229 230
f 229 6 198
f 230 198 55
f 229 198 230
f 62 231 232
f 231 55 203
f 232 203 17
f 231 203 232
f 61 230 227
f 230 55 231
f 227 231 62
f 230 231 227
f 9 233 75
f 233 63 234
f 75 234 21
f 233 234 75
f 63 235 236
f 235 17 211
f 236 211 58
f 235 211 236
f 21 237 69
f 237 58 215
f 69 215 3
f 237 215 69
f 63 236 234
f 236 58 237
f 234 237 21
f 236 237 234
f 18 228 222
f 228 62 238
f 222 238 60
f 228 238 222
f 62 232 239
f 232 17 235
f 239 235 63
f 232 235 239
f 60 240 225
f 240 63 233
f 225 233 9
f 240 233 225
f 62 239 238
f 239 63 240
f 238 240 60
f 239 240 238
f 4 122 138
f 122 35 241
f 138 241 40
f 122 241 138
f 35 119 243
f 119 11 242
f 243 242 64
f 119 242 243
f 40 244 141
f 244 64 245
f 141 245 14
f 244 245 141
f 35 243 241
f 243 64 244
f 241 244 40
f 243 244 241
f 11 113 247
f 113 32 246
f 247 246 65
f 113 246 247
f 32 110 248
f 110 6 229
f 248 229 61
f 110 229 248
f 65 249 250
f 249 61 226
f 250 226 18
f 249 226 250
f 32 248 246
f 248 61 249
f 246 249 65
f 248 249 246
f 14 251 146
f 251 66 252
f 146 252 43
f 251 252 146
f 66 253 254
f 253 18 221
f 254 221 59
f 253 221 254
f 43 255 149
f 255 59 219
f 149 219 1
f 255 219 149
f 66 254 252
f 254 59 255
f 252 255 43
f 254 255 252
f 11 247 242
f 247 65 256
f 242 256 64
f 247 256 242
f 65 250 257
f 250 18 253
f 257 253 66
f 250 253 257
f 64 258 245
f 258 66 251
f 245 251 14
f 258 251 245
f 65 257 256
f 257 66 258
f 256 258 64
f 257 258 256
