v -0.14999999999999999 -0.089999999999999997 -0.059999999999999998
v -0.14999999999999999 -0.089999999999999997 0.059999999999999998
v -0.14999999999999999 0.089999999999999997 -0.059999999999999998
v -0.14999999999999999 0.089999999999999997 0.059999999999999998
v 0.14999999999999999 -0.089999999999999997 -0.059999999999999998
v 0.14999999999999999 -0.089999999999999997 0.059999999999999998
v 0.14999999999999999 0.089999999999999997 -0.059999999999999998
v 0.14999999999999999 0.089999999999999997 0.059999999999999998
v -0.14999999999999999 -0.089999999999999997 0
v -0.14999999999999999 0 0.059999999999999998
v -0.14999999999999999 0 0
v -0.14999999999999999 0.089999999999999997 0
v -0.14999999999999999 0 -0.059999999999999998
v 0.14999999999999999 0 -0.059999999999999998
v 0.14999999999999999 0.089999999999999997 0
v 0.14999999999999999 0 0
v 0.14999999999999999 0 0.059999999999999998
v 0.14999999999999999 -0.089999999999999997 0
v 0 -0.089999999999999997 -0.059999999999999998
v 0 -0.089999999999999997 0
v 0 -0.089999999999999997 0.059999999999999998
v 0 0.089999999999999997 0.059999999999999998
v 0 0.089999999999999997 0
v 0 0.089999999999999997 -0.059999999999999998
v 0 0 -0.059999999999999998
v 0 0 0.059999999999999998
v -0.14999999999999999 -0.089999999999999997 -0.029999999999999999
v -0.14999999999999999 -0.044999999999999998 0
v -0.14999999999999999 -0.044999999999999998 -0.029999999999999999
v -0.14999999999999999 -0.089999999999999997 0.029999999999999999
v -0.14999999999999999 -0.044999999999999998 0.059999999999999998
v -0.14999999999999999 -0.044999999999999998 0.029999999999999999
v -0.14999999999999999 0 0.029999999999999999
v -0.14999999999999999 0.044999999999999998 0.059999999999999998
v -0.14999999999999999 0.044999999999999998 0.029999999999999999
v -0.14999999999999999 0 -0.029999999999999999
v -0.14999999999999999 -0.044999999999999998 -0.059999999999999998
v -0.14999999999999999 0.089999999999999997 0.029999999999999999
v -0.14999999999999999 0.044999999999999998 0
v -0.14999999999999999 0.044999999999999998 -0.029999999999999999
v -0.14999999999999999 0.089999999999999997 -0.029999999999999999
v -0.14999999999999999 0.044999999999999998 -0.059999999999999998
v 0.14999999999999999 -0.044999999999999998 -0.059999999999999998
v 0.14999999999999999 0 -0.029999999999999999
v 0.14999999999999999 -0.044999999999999998 -0.029999999999999999
v 0.14999999999999999 0.044999999999999998 -0.059999999999999998
v 0.14999999999999999 0.089999999999999997 -0.029999999999999999
v 0.14999999999999999 0.044999999999999998 -0.029999999999999999
v 0.14999999999999999 0.044999999999999998 0
v 0.14999999999999999 0.089999999999999997 0.029999999999999999
v 0.14999999999999999 0.044999999999999998 0.029999999999999999
v 0.14999999999999999 -0.044999999999999998 0
v 0.14999999999999999 -0.089999999999999997 -0.029999999999999999
v 0.14999999999999999 0.044999999999999998 0.059999999999999998
v 0.14999999999999999 0 0.029999999999999999
v 0.14999999999999999 -0.044999999999999998 0.029999999999999999
v 0.14999999999999999 -0.044999999999999998 0.059999999999999998
v 0.14999999999999999 -0.089999999999999997 0.029999999999999999
v -0.074999999999999997 -0.089999999999999997 -0.059999999999999998
v 0 -0.089999999999999997 -0.029999999999999999
v -0.074999999999999997 -0.089999999999999997 -0.029999999999999999
v 0.074999999999999997 -0.089999999999999997 -0.059999999999999998
v 0.074999999999999997 -0.089999999999999997 -0.029999999999999999
v 0.074999999999999997 -0.089999999999999997 0
v 0.074999999999999997 -0.089999999999999997 0.029999999999999999
v -0.074999999999999997 -0.089999999999999997 0
v 0.074999999999999997 -0.089999999999999997 0.059999999999999998
v 0 -0.089999999999999997 0.029999999999999999
v -0.074999999999999997 -0.089999999999999997 0.029999999999999999
v -0.074999999999999997 -0.089999999999999997 0.059999999999999998
v -0.074999999999999997 0.089999999999999997 0
v -0.074999999999999997 0.089999999999999997 -0.029999999999999999
v -0.074999999999999997 0.089999999999999997 0.059999999999999998
v -0.074999999999999997 0.089999999999999997 0.029999999999999999
v 0 0.089999999999999997 0.029999999999999999
v 0.074999999999999997 0.089999999999999997 0.059999999999999998
v 0.074999999999999997 0.089999999999999997 0.029999999999999999
v 0 0.089999999999999997 -0.029999999999999999
v -0.074999999999999997 0.089999999999999997 -0.059999999999999998
v 0.074999999999999997 0.089999999999999997 0
v 0.074999999999999997 0.089999999999999997 -0.029999999999999999
v 0.074999999999999997 0.089999999999999997 -0.059999999999999998
v -0.074999999999999997 0 -0.059999999999999998
v -0.074999999999999997 -0.044999999999999998 -0.059999999999999998
v -0.074999999999999997 0.044999999999999998 -0.059999999999999998
v 0 0.044999999999999998 -0.059999999999999998
v 0.074999999999999997 0.044999999999999998 -0.059999999999999998
v 0 -0.044999999999999998 -0.059999999999999998
v 0.074999999999999997 0 -0.059999999999999998
v 0.074999999999999997 -0.044999999999999998 -0.059999999999999998
v 0 -0.044999999999999998 0.059999999999999998
v -0.074999999999999997 -0.044999999999999998 0.059999999999999998
v 0.074999999999999997 -0.044999999999999998 0.059999999999999998
v 0.074999999999999997 0 0.059999999999999998
v 0.074999999999999997 0.044999999999999998 0.059999999999999998
v -0.074999999999999997 0 0.059999999999999998
v 0 0.044999999999999998 0.059999999999999998
v -0.074999999999999997 0.044999999999999998 0.059999999999999998
v -0.14999999999999999 -0.089999999999999997 -0.044999999999999998
v -0.14999999999999999 -0.067500000000000004 -0.029999999999999999
v -0.14999999999999999 -0.067500000000000004 -0.044999999999999998
v -0.14999999999999999 -0.089999999999999997 -0.014999999999999999
v -0.14999999999999999 -0.067500000000000004 0
v -0.14999999999999999 -0.067500000000000004 -0.014999999999999999
v -0.14999999999999999 -0.044999999999999998 -0.014999999999999999
v -0.14999999999999999 -0.022499999999999999 0
v -0.14999999999999999 -0.022499999999999999 -0.014999999999999999
v -0.14999999999999999 -0.089999999999999997 0.014999999999999999
v -0.14999999999999999 -0.067500000000000004 0.029999999999999999
v -0.14999999999999999 -0.067500000000000004 0.014999999999999999
v -0.14999999999999999 -0.089999999999999997 0.044999999999999998
v -0.14999999999999999 -0.067500000000000004 0.059999999999999998
v -0.14999999999999999 -0.067500000000000004 0.044999999999999998
v -0.14999999999999999 -0.044999999999999998 0.044999999999999998
v -0.14999999999999999 -0.022499999999999999 0.059999999999999998
v -0.14999999999999999 -0.022499999999999999 0.044999999999999998
v -0.14999999999999999 0 0.014999999999999999
v -0.14999999999999999 0.022499999999999999 0.029999999999999999
v -0.14999999999999999 0.022499999999999999 0.014999999999999999
v -0.14999999999999999 0 0.044999999999999998
v -0.14999999999999999 0.022499999999999999 0.059999999999999998
v -0.14999999999999999 0.022499999999999999 0.044999999999999998
v -0.14999999999999999 0.044999999999999998 0.044999999999999998
v -0.14999999999999999 0.067500000000000004 0.059999999999999998
v -0.14999999999999999 0.067500000000000004 0.044999999999999998
v -0.14999999999999999 -0.044999999999999998 0.014999999999999999
v -0.14999999999999999 -0.022499999999999999 0.029999999999999999
v -0.14999999999999999 -0.022499999999999999 0.014999999999999999
v -0.14999999999999999 -0.044999999999999998 -0.044999999999999998
v -0.14999999999999999 -0.067500000000000004 -0.059999999999999998
v -0.14999999999999999 0 -0.014999999999999999
v -0.14999999999999999 -0.022499999999999999 -0.029999999999999999
v -0.14999999999999999 -0.022499999999999999 -0.044999999999999998
v -0.14999999999999999 0 -0.044999999999999998
v -0.14999999999999999 -0.022499999999999999 -0.059999999999999998
v -0.14999999999999999 0.044999999999999998 0.014999999999999999
v -0.14999999999999999 0.022499999999999999 0
v -0.14999999999999999 0.089999999999999997 0.044999999999999998
v -0.14999999999999999 0.067500000000000004 0.029999999999999999
v -0.14999999999999999 0.067500000000000004 0.014999999999999999
v -0.14999999999999999 0.089999999999999997 0.014999999999999999
v -0.14999999999999999 0.067500000000000004 0
v -0.14999999999999999 0.022499999999999999 -0.044999999999999998
v -0.14999999999999999 0.044999999999999998 -0.044999999999999998
v -0.14999999999999999 0.022499999999999999 -0.059999999999999998
v -0.14999999999999999 0.067500000000000004 -0.014999999999999999
v -0.14999999999999999 0.089999999999999997 -0.014999999999999999
v -0.14999999999999999 0.067500000000000004 -0.029999999999999999
v -0.14999999999999999 0.067500000000000004 -0.044999999999999998
v -0.14999999999999999 0.089999999999999997 -0.044999999999999998
v -0.14999999999999999 0.067500000000000004 -0.059999999999999998
v -0.14999999999999999 0.022499999999999999 -0.014999999999999999
v -0.14999999999999999 0.044999999999999998 -0.014999999999999999
v -0.14999999999999999 0.022499999999999999 -0.029999999999999999
v 0.14999999999999999 -0.067500000000000004 -0.059999999999999998
v 0.14999999999999999 -0.044999999999999998 -0.044999999999999998
v 0.14999999999999999 -0.067500000000000004 -0.044999999999999998
v 0.14999999999999999 -0.022499999999999999 -0.059999999999999998
v 0.14999999999999999 0 -0.044999999999999998
v 0.14999999999999999 -0.022499999999999999 -0.044999999999999998
v 0.14999999999999999 -0.022499999999999999 -0.029999999999999999
v 0.14999999999999999 0 -0.014999999999999999
v 0.14999999999999999 -0.022499999999999999 -0.014999999999999999
v 0.14999999999999999 0.022499999999999999 -0.059999999999999998
v 0.14999999999999999 0.044999999999999998 -0.044999999999999998
v 0.14999999999999999 0.022499999999999999 -0.044999999999999998
v 0.14999999999999999 0.067500000000000004 -0.059999999999999998
v 0.14999999999999999 0.089999999999999997 -0.044999999999999998
v 0.14999999999999999 0.067500000000000004 -0.044999999999999998
v 0.14999999999999999 0.067500000000000004 -0.029999999999999999
v 0.14999999999999999 0.089999999999999997 -0.014999999999999999
v 0.14999999999999999 0.067500000000000004 -0.014999999999999999
v 0.14999999999999999 0.022499999999999999 0
v 0.14999999999999999 0.044999999999999998 0.014999999999999999
v 0.14999999999999999 0.022499999999999999 0.014999999999999999
v 0.14999999999999999 0.067500000000000004 0
v 0.14999999999999999 0.089999999999999997 0.014999999999999999
v 0.14999999999999999 0.067500000000000004 0.014999999999999999
v 0.14999999999999999 0.067500000000000004 0.029999999999999999
v 0.14999999999999999 0.089999999999999997 0.044999999999999998
v 0.14999999999999999 0.067500000000000004 0.044999999999999998
v 0.14999999999999999 0.022499999999999999 -0.029999999999999999
v 0.14999999999999999 0.044999999999999998 -0.014999999999999999
v 0.14999999999999999 0.022499999999999999 -0.014999999999999999
v 0.14999999999999999 -0.067500000000000004 -0.029999999999999999
v 0.14999999999999999 -0.089999999999999997 -0.044999999999999998
v 0.14999999999999999 -0.022499999999999999 0
v 0.14999999999999999 -0.044999999999999998 -0.014999999999999999
v 0.14999999999999999 -0.067500000000000004 -0.014999999999999999
v 0.14999999999999999 -0.067500000000000004 0
v 0.14999999999999999 -0.089999999999999997 -0.014999999999999999
v 0.14999999999999999 0.022499999999999999 0.029999999999999999
v 0.14999999999999999 0 0.014999999999999999
v 0.14999999999999999 0.067500000000000004 0.059999999999999998
v 0.14999999999999999 0.044999999999999998 0.044999999999999998
v 0.14999999999999999 0.022499999999999999 0.044999999999999998
v 0.14999999999999999 0.022499999999999999 0.059999999999999998
v 0.14999999999999999 0 0.044999999999999998
v 0.14999999999999999 -0.067500000000000004 0.014999999999999999
v 0.14999999999999999 -0.067500000000000004 0.029999999999999999
v 0.14999999999999999 -0.089999999999999997 0.014999999999999999
v 0.14999999999999999 -0.022499999999999999 0.044999999999999998
v 0.14999999999999999 -0.022499999999999999 0.059999999999999998
v 0.14999999999999999 -0.044999999999999998 0.044999999999999998
v 0.14999999999999999 -0.067500000000000004 0.044999999999999998
v 0.14999999999999999 -0.067500000000000004 0.059999999999999998
v 0.14999999999999999 -0.089999999999999997 0.044999999999999998
v 0.14999999999999999 -0.022499999999999999 0.014999999999999999
v 0.14999999999999999 -0.022499999999999999 0.029999999999999999
v 0.14999999999999999 -0.044999999999999998 0.014999999999999999
v -0.11249999999999999 -0.089999999999999997 -0.059999999999999998
v -0.074999999999999997 -0.089999999999999997 -0.044999999999999998
v -0.11249999999999999 -0.089999999999999997 -0.044999999999999998
v -0.037499999999999999 -0.089999999999999997 -0.059999999999999998
v 0 -0.089999999999999997 -0.044999999999999998
v -0.037499999999999999 -0.089999999999999997 -0.044999999999999998
v -0.037499999999999999 -0.089999999999999997 -0.029999999999999999
v 0 -0.089999999999999997 -0.014999999999999999
v -0.037499999999999999 -0.089999999999999997 -0.014999999999999999
v 0.037499999999999999 -0.089999999999999997 -0.059999999999999998
v 0.074999999999999997 -0.089999999999999997 -0.044999999999999998
v 0.037499999999999999 -0.089999999999999997 -0.044999999999999998
v 0.11249999999999999 -0.089999999999999997 -0.059999999999999998
v 0.11249999999999999 -0.089999999999999997 -0.044999999999999998
v 0.11249999999999999 -0.089999999999999997 -0.029999999999999999
v 0.11249999999999999 -0.089999999999999997 -0.014999999999999999
v 0.037499999999999999 -0.089999999999999997 0
v 0.074999999999999997 -0.089999999999999997 0.014999999999999999
v 0.037499999999999999 -0.089999999999999997 0.014999999999999999
v 0.11249999999999999 -0.089999999999999997 0
v 0.11249999999999999 -0.089999999999999997 0.014999999999999999
v 0.11249999999999999 -0.089999999999999997 0.029999999999999999
v 0.11249999999999999 -0.089999999999999997 0.044999999999999998
v 0.037499999999999999 -0.089999999999999997 -0.029999999999999999
v 0.074999999999999997 -0.089999999999999997 -0.014999999999999999
v 0.037499999999999999 -0.089999999999999997 -0.014999999999999999
v -0.11249999999999999 -0.089999999999999997 -0.029999999999999999
v -0.037499999999999999 -0.089999999999999997 0
v -0.074999999999999997 -0.089999999999999997 -0.014999999999999999
v -0.11249999999999999 -0.089999999999999997 -0.014999999999999999
v -0.11249999999999999 -0.089999999999999997 0
v 0.037499999999999999 -0.089999999999999997 0.029999999999999999
v 0 -0.089999999999999997 0.014999999999999999
v 0.11249999999999999 -0.089999999999999997 0.059999999999999998
v 0.074999999999999997 -0.089999999999999997 0.044999999999999998
v 0.037499999999999999 -0.089999999999999997 0.044999999999999998
v 0.037499999999999999 -0.089999999999999997 0.059999999999999998
v 0 -0.089999999999999997 0.044999999999999998
v -0.11249999999999999 -0.089999999999999997 0.014999999999999999
v -0.11249999999999999 -0.089999999999999997 0.029999999999999999
v -0.037499999999999999 -0.089999999999999997 0.044999999999999998
v -0.037499999999999999 -0.089999999999999997 0.059999999999999998
v -0.074999999999999997 -0.089999999999999997 0.044999999999999998
v -0.11249999999999999 -0.089999999999999997 0.044999999999999998
v -0.11249999999999999 -0.089999999999999997 0.059999999999999998
v -0.037499999999999999 -0.089999999999999997 0.014999999999999999
v -0.037499999999999999 -0.089999999999999997 0.029999999999999999
v -0.074999999999999997 -0.089999999999999997 0.014999999999999999
v -0.11249999999999999 0.089999999999999997 -0.029999999999999999
v -0.11249999999999999 0.089999999999999997 -0.044999999999999998
v -0.11249999999999999 0.089999999999999997 0
v -0.11249999999999999 0.089999999999999997 -0.014999999999999999
v -0.074999999999999997 0.089999999999999997 -0.014999999999999999
v -0.037499999999999999 0.089999999999999997 0
v -0.037499999999999999 0.089999999999999997 -0.014999999999999999
v -0.11249999999999999 0.089999999999999997 0.029999999999999999
v -0.11249999999999999 0.089999999999999997 0.014999999999999999
v -0.11249999999999999 0.089999999999999997 0.059999999999999998
v -0.11249999999999999 0.089999999999999997 0.044999999999999998
v -0.074999999999999997 0.089999999999999997 0.044999999999999998
v -0.037499999999999999 0.089999999999999997 0.059999999999999998
v -0.037499999999999999 0.089999999999999997 0.044999999999999998
v 0 0.089999999999999997 0.014999999999999999
v 0.037499999999999999 0.089999999999999997 0.029999999999999999
v 0.037499999999999999 0.089999999999999997 0.014999999999999999
v 0 0.089999999999999997 0.044999999999999998
v 0.037499999999999999 0.089999999999999997 0.059999999999999998
v 0.037499999999999999 0.089999999999999997 0.044999999999999998
v 0.074999999999999997 0.089999999999999997 0.044999999999999998
v 0.11249999999999999 0.089999999999999997 0.059999999999999998
v 0.11249999999999999 0.089999999999999997 0.044999999999999998
v -0.074999999999999997 0.089999999999999997 0.014999999999999999
v -0.037499999999999999 0.089999999999999997 0.029999999999999999
v -0.037499999999999999 0.089999999999999997 0.014999999999999999
v -0.074999999999999997 0.089999999999999997 -0.044999999999999998
v -0.11249999999999999 0.089999999999999997 -0.059999999999999998
v 0 0.089999999999999997 -0.014999999999999999
v -0.037499999999999999 0.089999999999999997 -0.029999999999999999
v -0.037499999999999999 0.089999999999999997 -0.044999999999999998
v 0 0.089999999999999997 -0.044999999999999998
v -0.037499999999999999 0.089999999999999997 -0.059999999999999998
v 0.074999999999999997 0.089999999999999997 0.014999999999999999
v 0.037499999999999999 0.089999999999999997 0
v 0.11249999999999999 0.089999999999999997 0.029999999999999999
v 0.11249999999999999 0.089999999999999997 0.014999999999999999
v 0.11249999999999999 0.089999999999999997 0
v 0.037499999999999999 0.089999999999999997 -0.044999999999999998
v 0.074999999999999997 0.089999999999999997 -0.044999999999999998
v 0.037499999999999999 0.089999999999999997 -0.059999999999999998
v 0.11249999999999999 0.089999999999999997 -0.014999999999999999
v 0.11249999999999999 0.089999999999999997 -0.029999999999999999
v 0.11249999999999999 0.089999999999999997 -0.044999999999999998
v 0.11249999999999999 0.089999999999999997 -0.059999999999999998
v 0.037499999999999999 0.089999999999999997 -0.014999999999999999
v 0.074999999999999997 0.089999999999999997 -0.014999999999999999
v 0.037499999999999999 0.089999999999999997 -0.029999999999999999
v -0.11249999999999999 -0.044999999999999998 -0.059999999999999998
v -0.11249999999999999 -0.067500000000000004 -0.059999999999999998
v -0.11249999999999999 0 -0.059999999999999998
v -0.11249999999999999 -0.022499999999999999 -0.059999999999999998
v -0.074999999999999997 -0.022499999999999999 -0.059999999999999998
v -0.037499999999999999 0 -0.059999999999999998
v -0.037499999999999999 -0.022499999999999999 -0.059999999999999998
v -0.11249999999999999 0.044999999999999998 -0.059999999999999998
v -0.11249999999999999 0.022499999999999999 -0.059999999999999998
v -0.11249999999999999 0.067500000000000004 -0.059999999999999998
v -0.074999999999999997 0.067500000000000004 -0.059999999999999998
v -0.037499999999999999 0.067500000000000004 -0.059999999999999998
v 0 0.022499999999999999 -0.059999999999999998
v 0.037499999999999999 0.044999999999999998 -0.059999999999999998
v 0.037499999999999999 0.022499999999999999 -0.059999999999999998
v 0 0.067500000000000004 -0.059999999999999998
v 0.037499999999999999 0.067500000000000004 -0.059999999999999998
v 0.074999999999999997 0.067500000000000004 -0.059999999999999998
v 0.11249999999999999 0.067500000000000004 -0.059999999999999998
v -0.074999999999999997 0.022499999999999999 -0.059999999999999998
v -0.037499999999999999 0.044999999999999998 -0.059999999999999998
v -0.037499999999999999 0.022499999999999999 -0.059999999999999998
v -0.074999999999999997 -0.067500000000000004 -0.059999999999999998
v 0 -0.022499999999999999 -0.059999999999999998
v -0.037499999999999999 -0.044999999999999998 -0.059999999999999998
v -0.037499999999999999 -0.067500000000000004 -0.059999999999999998
v 0 -0.067500000000000004 -0.059999999999999998
v 0.074999999999999997 0.022499999999999999 -0.059999999999999998
v 0.037499999999999999 0 -0.059999999999999998
v 0.11249999999999999 0.044999999999999998 -0.059999999999999998
v 0.11249999999999999 0.022499999999999999 -0.059999999999999998
v 0.11249999999999999 0 -0.059999999999999998
v 0.037499999999999999 -0.067500000000000004 -0.059999999999999998
v 0.074999999999999997 -0.067500000000000004 -0.059999999999999998
v 0.11249999999999999 -0.022499999999999999 -0.059999999999999998
v 0.11249999999999999 -0.044999999999999998 -0.059999999999999998
v 0.11249999999999999 -0.067500000000000004 -0.059999999999999998
v 0.037499999999999999 -0.022499999999999999 -0.059999999999999998
v 0.074999999999999997 -0.022499999999999999 -0.059999999999999998
v 0.037499999999999999 -0.044999999999999998 -0.059999999999999998
v -0.074999999999999997 -0.067500000000000004 0.059999999999999998
v -0.11249999999999999 -0.067500000000000004 0.059999999999999998
v 0 -0.067500000000000004 0.059999999999999998
v -0.037499999999999999 -0.067500000000000004 0.059999999999999998
v -0.037499999999999999 -0.044999999999999998 0.059999999999999998
v 0 -0.022499999999999999 0.059999999999999998
v -0.037499999999999999 -0.022499999999999999 0.059999999999999998
v 0.074999999999999997 -0.067500000000000004 0.059999999999999998
v 0.037499999999999999 -0.067500000000000004 0.059999999999999998
v 0.11249999999999999 -0.067500000000000004 0.059999999999999998
v 0.11249999999999999 -0.044999999999999998 0.059999999999999998
v 0.11249999999999999 -0.022499999999999999 0.059999999999999998
v 0.037499999999999999 0 0.059999999999999998
v 0.074999999999999997 0.022499999999999999 0.059999999999999998
v 0.037499999999999999 0.022499999999999999 0.059999999999999998
v 0.11249999999999999 0 0.059999999999999998
v 0.11249999999999999 0.022499999999999999 0.059999999999999998
v 0.11249999999999999 0.044999999999999998 0.059999999999999998
v 0.11249999999999999 0.067500000000000004 0.059999999999999998
v 0.037499999999999999 -0.044999999999999998 0.059999999999999998
v 0.074999999999999997 -0.022499999999999999 0.059999999999999998
v 0.037499999999999999 -0.022499999999999999 0.059999999999999998
v -0.11249999999999999 -0.044999999999999998 0.059999999999999998
v -0.037499999999999999 0 0.059999999999999998
v -0.074999999999999997 -0.022499999999999999 0.059999999999999998
v -0.11249999999999999 -0.022499999999999999 0.059999999999999998
v -0.11249999999999999 0 0.059999999999999998
v 0.037499999999999999 0.044999999999999998 0.059999999999999998
v 0 0.022499999999999999 0.059999999999999998
v 0.074999999999999997 0.067500000000000004 0.059999999999999998
v 0.037499999999999999 0.067500000000000004 0.059999999999999998
v 0 0.067500000000000004 0.059999999999999998
v -0.11249999999999999 0.022499999999999999 0.059999999999999998
v -0.11249999999999999 0.044999999999999998 0.059999999999999998
v -0.037499999999999999 0.067500000000000004 0.059999999999999998
v -0.074999999999999997 0.067500000000000004 0.059999999999999998
v -0.11249999999999999 0.067500000000000004 0.059999999999999998
v -0.037499999999999999 0.022499999999999999 0.059999999999999998
v -0.037499999999999999 0.044999999999999998 0.059999999999999998
v -0.074999999999999997 0.022499999999999999 0.059999999999999998
f 1 99 101
f 99 27 100
f 101 100 29
f 99 100 101
f 27 102 104
f 102 9 103
f 104 103 28
f 102 103 104
f 29 105 107
f 105 28 106
f 107 106 11
f 105 106 107
f 27 104 100
f 104 28 105
f 100 105 29
f 104 105 100
f 9 108 110
f 108 30 109
f 110 109 32
f 108 109 110
f 30 111 113
f 111 2 112
f 113 112 31
f 111 112 113
f 32 114 116
f 114 31 115
f 116 115 10
f 114 115 116
f 30 113 109
f 113 31 114
f 109 114 32
f 113 114 109
f 11 117 119
f 117 33 118
f 119 118 35
f 117 118 119
f 33 120 122
f 120 10 121
f 122 121 34
f 120 121 122
f 35 123 125
f 123 34 124
f 125 124 4
f 123 124 125
f 33 122 118
f 122 34 123
f 118 123 35
f 122 123 118
f 9 110 103
f 110 32 126
f 103 126 28
f 110 126 103
f 32 116 127
f 116 10 120
f 127 120 33
f 116 120 127
f 28 128 106
f 128 33 117
f 106 117 11
f 128 117 106
f 32 127 126
f 127 33 128
f 126 128 28
f 127 128 126
f 1 101 130
f 101 29 129
f 130 129 37
f 101 129 130
f 29 107 132
f 107 11 131
f 132 131 36
f 107 131 132
f 37 133 135
f 133 36 134
f 135 134 13
f 133 134 135
f 29 132 129
f 132 36 133
f 129 133 37
f 132 133 129
f 11 119 137
f 119 35 136
f 137 136 39
f 119 136 137
f 35 125 139
f 125 4 138
f 139 138 38
f 125 138 139
f 39 140 142
f 140 38 141
f 142 141 12
f 140 141 142
f 35 139 136
f 139 38 140
f 136 140 39
f 139 140 136
f 13 143 145
f 143 40 144
f 145 144 42
f 143 144 145
f 40 146 148
f 146 12 147
f 148 147 41
f 146 147 148
f 42 149 151
f 149 41 150
f 151 150 3
f 149 150 151
f 40 148 144
f 148 41 149
f 144 149 42
f 148 149 144
f 11 137 131
f 137 39 152
f 131 152 36
f 137 152 131
f 39 142 153
f 142 12 146
f 153 146 40
f 142 146 153
f 36 154 134
f 154 40 143
f 134 143 13
f 154 143 134
f 39 153 152
f 153 40 154
f 152 154 36
f 153 154 152
f 5 155 157
f 155 43 156
f 157 156 45
f 155 156 157
f 43 158 160
f 158 14 159
f 160 159 44
f 158 159 160
f 45 161 163
f 161 44 162
f 163 162 16
f 161 162 163
f 43 160 156
f 160 44 161
f 156 161 45
f 160 161 156
f 14 164 166
f 164 46 165
f 166 165 48
f 164 165 166
f 46 167 169
f 167 7 168
f 169 168 47
f 167 168 169
f 48 170 172
f 170 47 171
f 172 171 15
f 170 171 172
f 46 169 165
f 169 47 170
f 165 170 48
f 169 170 165
f 16 173 175
f 173 49 174
f 175 174 51
f 173 174 175
f 49 176 178
f 176 15 177
f 178 177 50
f 176 177 178
f 51 179 181
f 179 50 180
f 181 180 8
f 179 180 181
f 49 178 174
f 178 50 179
f 174 179 51
f 178 179 174
f 14 166 159
f 166 48 182
f 159 182 44
f 166 182 159
f 48 172 183
f 172 15 176
f 183 176 49
f 172 176 183
f 44 184 162
f 184 49 173
f 162 173 16
f 184 173 162
f 48 183 182
f 183 49 184
f 182 184 44
f 183 184 182
f 5 157 186
f 157 45 185
f 186 185 53
f 157 185 186
f 45 163 188
f 163 16 187
f 188 187 52
f 163 187 188
f 53 189 191
f 189 52 190
f 191 190 18
f 189 190 191
f 45 188 185
f 188 52 189
f 185 189 53
f 188 189 185
f 16 175 193
f 175 51 192
f 193 192 55
f 175 192 193
f 51 181 195
f 181 8 194
f 195 194 54
f 181 194 195
f 55 196 198
f 196 54 197
f 198 197 17
f 196 197 198
f 51 195 192
f 195 54 196
f 192 196 55
f 195 196 192
f 18 199 201
f 199 56 200
f 201 200 58
f 199 200 201
f 56 202 204
f 202 17 203
f 204 203 57
f 202 203 204
f 58 205 207
f 205 57 206
f 207 206 6
f 205 206 207
f 56 204 200
f 204 57 205
f 200 205 58
f 204 205 200
f 16 193 187
f 193 55 208
f 187 208 52
f 193 208 187
f 55 198 209
f 198 17 202
f 209 202 56
f 198 202 209
f 52 210 190
f 210 56 199
f 190 199 18
f 210 199 190
f 55 209 208
f 209 56 210
f 208 210 52
f 209 210 208
f 1 211 213
f 211 59 212
f 213 212 61
f 211 212 213
f 59 214 216
f 214 19 215
f 216 215 60
f 214 215 216
f 61 217 219
f 217 60 218
f 219 218 20
f 217 218 219
f 59 216 212
f 216 60 217
f 212 217 61
f 216 217 212
f 19 220 222
f 220 62 221
f 222 221 63
f 220 221 222
f 62 223 224
f 223 5 186
f 224 186 53
f 223 186 224
f 63 225 226
f 225 53 191
f 226 191 18
f 225 191 226
f 62 224 221
f 224 53 225
f 221 225 63
f 224 225 221
f 20 227 229
f 227 64 228
f 229 228 65
f 227 228 229
f 64 230 231
f 230 18 201
f 231 201 58
f 230 201 231
f 65 232 233
f 232 58 207
f 233 207 6
f 232 207 233
f 64 231 228
f 231 58 232
f 228 232 65
f 231 232 228
f 19 222 215
f 222 63 234
f 215 234 60
f 222 234 215
f 63 226 235
f 226 18 230
f 235 230 64
f 226 230 235
f 60 236 218
f 236 64 227
f 218 227 20
f 236 227 218
f 63 235 234
f 235 64 236
f 234 236 60
f 235 236 234
f 1 213 99
f 213 61 237
f 99 237 27
f 213 237 99
f 61 219 239
f 219 20 238
f 239 238 66
f 219 238 239
f 27 240 102
f 240 66 241
f 102 241 9
f 240 241 102
f 61 239 237
f 239 66 240
f 237 240 27
f 239 240 237
f 20 229 243
f 229 65 242
f 243 242 68
f 229 242 243
f 65 233 245
f 233 6 244
f 245 244 67
f 233 244 245
f 68 246 248
f 246 67 247
f 248 247 21
f 246 247 248
f 65 245 242
f 245 67 246
f 242 246 68
f 245 246 242
f 9 249 108
f 249 69 250
f 108 250 30
f 249 250 108
f 69 251 253
f 251 21 252
f 253 252 70
f 251 252 253
f 30 254 111
f 254 70 255
f 111 255 2
f 254 255 111
f 69 253 250
f 253 70 254
f 250 254 30
f 253 254 250
f 20 243 238
f 243 68 256
f 238 256 66
f 243 256 238
f 68 248 257
f 248 21 251
f 257 251 69
f 248 251 257
f 66 258 241
f 258 69 249
f 241 249 9
f 258 249 241
f 68 257 256
f 257 69 258
f 256 258 66
f 257 258 256
f 3 150 260
f 150 41 259
f 260 259 72
f 150 259 260
f 41 147 262
f 147 12 261
f 262 261 71
f 147 261 262
f 72 263 265
f 263 71 264
f 265 264 23
f 263 264 265
f 41 262 259
f 262 71 263
f 259 263 72
f 262 263 259
f 12 141 267
f 141 38 266
f 267 266 74
f 141 266 267
f 38 138 269
f 138 4 268
f 269 268 73
f 138 268 269
f 74 270 272
f 270 73 271
f 272 271 22
f 270 271 272
f 38 269 266
f 269 73 270
f 266 270 74
f 269 270 266
f 23 273 275
f 273 75 274
f 275 274 77
f 273 274 275
f 75 276 278
f 276 22 277
f 278 277 76
f 276 277 278
f 77 279 281
f 279 76 280
f 281 280 8
f 279 280 281
f 75 278 274
f 278 76 279
f 274 279 77
f 278 279 274
f 12 267 261
f 267 74 282
f 261 282 71
f 267 282 261
f 74 272 283
f 272 22 276
f 283 276 75
f 272 276 283
f 71 284 264
f 284 75 273
f 264 273 23
f 284 273 264
f 74 283 282
f 283 75 284
f 282 284 71
f 283 284 282
f 3 260 286
f 260 72 285
f 286 285 79
f 260 285 286
f 72 265 288
f 265 23 287
f 288 287 78
f 265 287 288
f 79 289 291
f 289 78 290
f 291 290 24
f 289 290 291
f 72 288 285
f 288 78 289
f 285 289 79
f 288 289 285
f 23 275 293
f 275 77 292
f 293 292 80
f 275 292 293
f 77 281 294
f 281 8 180
f 294 180 50
f 281 180 294
f 80 295 296
f 295 50 177
f 296 177 15
f 295 177 296
f 77 294 292
f 294 50 295
f 292 295 80
f 294 295 292
f 24 297 299
f 297 81 298
f 299 298 82
f 297 298 299
f 81 300 301
f 300 15 171
f 301 171 47
f 300 171 301
f 82 302 303
f 302 47 168
f 303 168 7
f 302 168 303
f 81 301 298
f 301 47 302
f 298 302 82
f 301 302 298
f 23 293 287
f 293 80 304
f 287 304 78
f 293 304 287
f 80 296 305
f 296 15 300
f 305 300 81
f 296 300 305
f 78 306 290
f 306 81 297
f 290 297 24
f 306 297 290
f 80 305 304
f 305 81 306
f 304 306 78
f 305 306 304
f 1 130 308
f 130 37 307
f 308 307 84
f 130 307 308
f 37 135 310
f 135 13 309
f 310 309 83
f 135 309 310
f 84 311 313
f 311 83 312
f 313 312 25
f 311 312 313
f 37 310 307
f 310 83 311
f 307 311 84
f 310 311 307
f 13 145 315
f 145 42 314
f 315 314 85
f 145 314 315
f 42 151 316
f 151 3 286
f 316 286 79
f 151 286 316
f 85 317 318
f 317 79 291
f 318 291 24
f 317 291 318
f 42 316 314
f 316 79 317
f 314 317 85
f 316 317 314
f 25 319 321
f 319 86 320
f 321 320 87
f 319 320 321
f 86 322 323
f 322 24 299
f 323 299 82
f 322 299 323
f 87 324 325
f 324 82 303
f 325 303 7
f 324 303 325
f 86 323 320
f 323 82 324
f 320 324 87
f 323 324 320
f 13 315 309
f 315 85 326
f 309 326 83
f 315 326 309
f 85 318 327
f 318 24 322
f 327 322 86
f 318 322 327
f 83 328 312
f 328 86 319
f 312 319 25
f 328 319 312
f 85 327 326
f 327 86 328
f 326 328 83
f 327 328 326
f 1 308 211
f 308 84 329
f 211 329 59
f 308 329 211
f 84 313 331
f 313 25 330
f 331 330 88
f 313 330 331
f 59 332 214
f 332 88 333
f 214 333 19
f 332 333 214
f 84 331 329
f 331 88 332
f 329 332 59
f 331 332 329
f 25 321 335
f 321 87 334
f 335 334 89
f 321 334 335
f 87 325 336
f 325 7 167
f 336 167 46
f 325 167 336
f 89 337 338
f 337 46 164
f 338 164 14
f 337 164 338
f 87 336 334
f 336 46 337
f 334 337 89
f 336 337 334
f 19 339 220
f 339 90 340
f 220 340 62
f 339 340 220
f 90 341 342
f 341 14 158
f 342 158 43
f 341 158 342
f 62 343 223
f 343 43 155
f 223 155 5
f 343 155 223
f 90 342 340
f 342 43 343
f 340 343 62
f 342 343 340
f 25 335 330
f 335 89 344
f 330 344 88
f 335 344 330
f 89 338 345
f 338 14 341
f 345 341 90
f 338 341 345
f 88 346 333
f 346 90 339
f 333 339 19
f 346 339 333
f 89 345 344
f 345 90 346
f 344 346 88
f 345 346 344
f 2 255 348
f 255 70 347
f 348 347 92
f 255 347 348
f 70 252 350
f 252 21 349
f 350 349 91
f 252 349 350
f 92 351 353
f 351 91 352
f 353 352 26
f 351 352 353
f 70 350 347
f 350 91 351
f 347 351 92
f 350 351 347
f 21 247 355
f 247 67 354
f 355 354 93
f 247 354 355
f 67 244 356
f 244 6 206
f 356 206 57
f 244 206 356
f 93 357 358
f 357 57 203
f 358 203 17
f 357 203 358
f 67 356 354
f 356 57 357
f 354 357 93
f 356 357 354
f 26 359 361
f 359 94 360
f 361 360 95
f 359 360 361
f 94 362 363
f 362 17 197
f 363 197 54
f 362 197 363
f 95 364 365
f 364 54 194
f 365 194 8
f 364 194 365
f 94 363 360
f 363 54 364
f 360 364 95
f 363 364 360
f 21 355 349
f 355 93 366
f 349 366 91
f 355 366 349
f 93 358 367
f 358 17 362
f 367 362 94
f 358 362 367
f 91 368 352
f 368 94 359
f 352 359 26
f 368 359 352
f 93 367 366
f 367 94 368
f 366 368 91
f 367 368 366
f 2 348 112
f 348 92 369
f 112 369 31
f 348 369 112
f 92 353 371
f 353 26 370
f 371 370 96
f 353 370 371
f 31 372 115
f 372 96 373
f 115 373 10
f 372 373 115
f 92 371 369
f 371 96 372
f 369 372 31
f 371 372 369
f 26 361 375
f 361 95 374
f 375 374 97
f 361 374 375
f 95 365 376
f 365 8 280
f 376 280 76
f 365 280 376
f 97 377 378
f 377 76 277
f 378 277 22
f 377 277 378
f 95 376 374
f 376 76 377
f 374 377 97
f 376 377 374
f 10 379 121
f 379 98 380
f 121 380 34
f 379 380 121
f 98 381 382
f 381 22 271
f 382 271 73
f 381 271 382
f 34 383 124
f 383 73 268
f 124 268 4
f 383 268 124
f 98 382 380
f 382 73 383
f 380 383 34
f 382 383 380
f 26 375 370
f 375 97 384
f 370 384 96
f 375 384 370
f 97 378 385
f 378 22 381
f 385 381 98
f 378 381 385
f 96 386 373
f 386 98 379
f 373 379 10
f 386 379 373
f 97 385 384
f 385 98 386
f 384 386 96
f 385 386 384
